PathFileType	4	(X/Y/Z)	C:/Users/opensim2020/Desktop/walking_exp_matlab/subject06_walking16_straight_01.trc																																																																																																																																																							
DataRate	CameraRate	NumFrames	NumMarkers	Units	OrigDataRate	OrigDataStartFrame	OrigNumFrames																																																																																																																																																			
100	100	7	51	mm	100	1120	333																																																																																																																																																			
Frame#	Time	LFHD			RFHD			LBHD			RBHD			C7			T10			CLAV			STRN			RBAK			LSHO			LUPA			LELB			LFRM			LWRA			LWRB			LFIN			RSHO			RUPA			RELB			RFRM			RWRA			RWRB			RFIN			LASI			RASI			LPSI			RPSI			LTHI			LKNE			LTIB			LANK			LHEE			LTOE			RTHI			RKNE			RTIB			RANK			RHEE			RTOE			*39			*40			*41			*42			*43			*44			*45			*46			*47			*48			*49			*50		
		X1	Y1	Z1	X2	Y2	Z2	X3	Y3	Z3	X4	Y4	Z4	X5	Y5	Z5	X6	Y6	Z6	X7	Y7	Z7	X8	Y8	Z8	X9	Y9	Z9	X10	Y10	Z10	X11	Y11	Z11	X12	Y12	Z12	X13	Y13	Z13	X14	Y14	Z14	X15	Y15	Z15	X16	Y16	Z16	X17	Y17	Z17	X18	Y18	Z18	X19	Y19	Z19	X20	Y20	Z20	X21	Y21	Z21	X22	Y22	Z22	X23	Y23	Z23	X24	Y24	Z24	X25	Y25	Z25	X26	Y26	Z26	X27	Y27	Z27	X28	Y28	Z28	X29	Y29	Z29	X30	Y30	Z30	X31	Y31	Z31	X32	Y32	Z32	X33	Y33	Z33	X34	Y34	Z34	X35	Y35	Z35	X36	Y36	Z36	X37	Y37	Z37	X38	Y38	Z38	X39	Y39	Z39	X40	Y40	Z40	X41	Y41	Z41	X42	Y42	Z42	X43	Y43	Z43	X44	Y44	Z44	X45	Y45	Z45	X46	Y46	Z46	X47	Y47	Z47	X48	Y48	Z48	X49	Y49	Z49	X50	Y50	Z50	X51	Y51	Z51
																																																																																																																																																										
250	2.49	549.09637	1666.81787	-1113.4502	533.16565	1653.84509	-983.08527	417.61334	1613.43359	-1132.05444	402.83664	1605.03247	-1003.93781	406.57239	1456.38721	-1073.9303	358.74628	1129.7373	-1060.56226	514.79651	1375.83228	-1062.98645	547.72809	1198.99768	-1064.62524	323.8158	1290.57043	-995.76697	474.58035	1407.34143	-1227.3501	507.05145	1208.82593	-1300.34082	530.89117	1098.22107	-1313.7915	609.23956	968.67047	-1326.1311	703.43188	887.65881	-1272.80518	653.62494	857.60999	-1312.76611	724.09644	801.87482	-1308.73096	461.45837	1410.94824	-906.09735	413.1347	1213.71765	-820.44153	417.82458	1092.10559	-806.87738	421.57462	972.23364	-786.22729	466.42282	826.23566	-809.74182	411.39133	834.41504	-772.65869	440.67975	754.88306	-767.17743	535.8775	959.85376	-1154.82483	526.74579	974.32019	-934.73279	377.48434	994.70282	-1132.99438	375.84912	998.62347	-964.59662	442.15176	647.79596	-1199.31714	421.14594	485.53903	-1172.96692	374.31036	233.01012	-1151.65137	371.43109	63.62226	-1095.61023	334.43604	51.55582	-1047.26575	517.19867	34.18804	-1104.41284	532.34186	646.95337	-869.11658	573.48065	527.41083	-892.91113	520.90375	269.55945	-895.32843	499.01337	84.1916	-935.98413	461.3295	60.28825	-983.91846	646.47632	41.51172	-927.91345	442.61768	1704.83887	-1067.20715	NaN	NaN	NaN	NaN	NaN	NaN	NaN	NaN	NaN	NaN	NaN	NaN	NaN	NaN	NaN	NaN	NaN	NaN	NaN	NaN	NaN	NaN	NaN	NaN	NaN	NaN	NaN	NaN	NaN	NaN	NaN	NaN	NaN
251	2.5	555.23627	1666.45398	-1113.47852	539.24902	1653.24536	-983.18201	423.81085	1613.00085	-1132.3197	408.8981	1604.3468	-1004.12427	412.55084	1456.01233	-1074.18713	364.52484	1129.44409	-1060.81531	520.82336	1375.33411	-1063.42334	553.52203	1198.42078	-1065.31885	329.93005	1290.1814	-996.13806	480.41159	1407.32654	-1227.61707	514.37231	1208.95447	-1300.10486	538.80261	1098.48218	-1313.3158	618.63403	969.76581	-1324.79382	714.85022	891.07257	-1271.95471	665.11029	859.66113	-1310.67896	735.90918	804.56342	-1306.23267	467.75284	1410.36108	-906.46704	419.51715	1213.09705	-820.78137	423.60483	1091.54614	-807.40979	426.99402	971.68225	-786.80475	471.49261	825.49548	-810.43396	416.77786	834.02386	-773.06177	445.59848	754.26947	-767.85376	541.42902	959.36133	-1155.61072	533.01843	973.81152	-935.50812	383.07703	994.31396	-1133.42798	382.16422	998.14038	-965.12787	446.67877	647.48755	-1199.67822	424.9158	485.3078	-1173.16638	376.02774	233.14513	-1151.78235	371.72287	63.74404	-1095.47156	334.61063	51.80736	-1047.09497	517.27301	34.16328	-1104.38464	537.71198	646.30029	-869.58429	579.76306	527.04346	-893.39093	536.38654	267.78455	-895.69336	521.39624	81.62961	-935.81384	484.63138	57.25546	-983.70709	670.39081	41.01431	-929.67401	448.6525	1704.25574	-1067.29053	NaN	NaN	NaN	NaN	NaN	NaN	NaN	NaN	NaN	NaN	NaN	NaN	NaN	NaN	NaN	NaN	NaN	NaN	NaN	NaN	NaN	NaN	NaN	NaN	NaN	NaN	NaN	NaN	NaN	NaN	NaN	NaN	NaN
252	2.51	561.37604	1666.01514	-1113.56079	545.28217	1652.64648	-983.20398	429.99838	1612.50366	-1132.46204	414.98834	1603.70471	-1004.29132	418.86938	1455.55212	-1074.34509	370.46912	1128.99536	-1061.02869	526.93243	1374.7627	-1063.80811	559.40149	1197.81384	-1065.97095	336.05325	1289.75818	-996.37494	486.19897	1406.97156	-1227.78308	521.64587	1208.96106	-1299.78601	546.53107	1098.40759	-1312.71765	628.34198	970.90002	-1323.82043	726.07428	894.44397	-1270.54468	676.54309	861.76636	-1308.51563	748.20154	807.74347	-1303.82617	474.05722	1409.72998	-906.7428	425.41391	1212.65454	-821.0481	429.35791	1090.95325	-807.9201	432.45255	971.01923	-787.39795	476.7251	824.89154	-811.06989	421.98965	833.30792	-773.86438	450.64835	753.58716	-768.55408	546.99878	958.79395	-1156.47253	539.39716	973.24115	-936.26355	388.80078	993.83911	-1133.83215	388.24063	997.68219	-965.45349	451.24194	647.18854	-1200.04565	428.81424	485.08527	-1173.45715	377.79456	233.02151	-1151.80127	372.02283	63.87527	-1095.34705	334.79529	52.05998	-1046.97205	517.34259	34.15314	-1104.39282	544.35748	646.07428	-869.32196	585.8111	526.44849	-893.87549	551.5459	266.25723	-896.01917	543.94391	79.5186	-936.1944	506.89841	54.98024	-983.78571	694.05273	41.48928	-931.23566	454.79657	1703.71045	-1067.31238	NaN	NaN	NaN	NaN	NaN	NaN	NaN	NaN	NaN	NaN	NaN	NaN	NaN	NaN	NaN	NaN	NaN	NaN	NaN	NaN	NaN	NaN	NaN	NaN	NaN	NaN	NaN	NaN	NaN	NaN	NaN	NaN	NaN
253	2.52	567.55573	1665.45728	-1113.53674	551.3952	1652.01331	-983.19818	436.13342	1611.95923	-1132.50916	421.12933	1603.02808	-1004.34351	425.01294	1455.02051	-1074.48621	376.4856	1128.48169	-1061.19897	533.0885	1374.19885	-1064.13232	565.29022	1197.1593	-1066.55334	342.29791	1289.16565	-996.57043	492.19986	1406.70203	-1228.03345	528.70844	1208.81445	-1299.51563	554.16736	1098.38733	-1312.18188	637.6568	971.961	-1322.22998	737.06073	897.75281	-1268.83936	687.83423	863.75195	-1306.15137	759.98645	810.53174	-1301.01941	480.37311	1409.05396	-906.93524	431.45282	1211.828	-821.56183	434.58096	1090.26282	-808.20752	438.16467	970.3623	-787.86591	482.0184	824.10413	-811.66986	427.06558	832.64624	-774.38025	455.69601	752.87384	-769.1665	552.6109	958.25543	-1157.26257	545.75568	972.4776	-936.94806	394.5535	993.36847	-1134.20032	394.59225	997.09229	-965.8576	455.94589	646.8443	-1200.46057	432.85959	484.78317	-1173.77209	379.8302	233.17145	-1151.98022	372.34467	64.02884	-1095.22388	334.92117	52.35481	-1046.81421	517.43158	34.17081	-1104.40881	549.68646	645.10364	-869.62122	591.81238	525.74841	-894.56012	566.15295	264.90808	-896.40106	565.67419	78.01568	-936.34894	529.19855	52.97826	-983.8042	717.18396	42.76268	-932.50433	460.85147	1703.13989	-1067.28552	NaN	NaN	NaN	NaN	NaN	NaN	NaN	NaN	NaN	NaN	NaN	NaN	NaN	NaN	NaN	NaN	NaN	NaN	NaN	NaN	NaN	NaN	NaN	NaN	NaN	NaN	NaN	NaN	NaN	NaN	NaN	NaN	NaN
254	2.53	573.69629	1664.88159	-1113.43445	557.54626	1651.33972	-983.16711	442.33447	1611.38916	-1132.50977	427.24313	1602.41919	-1004.40448	431.10263	1454.45435	-1074.52209	382.49768	1127.96411	-1061.26624	539.18884	1373.60547	-1064.33484	571.27094	1196.52661	-1067.13281	348.46121	1288.5918	-996.60449	498.10709	1406.22473	-1228.18359	535.62006	1208.45361	-1299.276	561.56738	1098.0752	-1311.63928	647.25366	973.00372	-1321.1532	747.75354	900.9281	-1266.75977	699.11115	865.75818	-1303.69458	772.47858	814.10925	-1298.30042	486.68088	1408.30652	-907.04272	437.21136	1211.25342	-821.97064	440.59903	1089.5564	-808.49792	443.69189	969.60339	-788.38226	487.28165	823.30634	-812.22729	432.52466	831.88739	-775.05865	460.93652	752.10358	-769.77655	558.28174	957.67517	-1158.03967	552.14343	971.74512	-937.74829	400.23529	992.85638	-1134.46167	400.98956	996.41095	-966.10809	460.8255	646.44135	-1200.80115	437.07703	484.42429	-1174.12097	382.09402	233.15878	-1151.99121	372.68954	64.17582	-1095.13477	335.14999	52.66647	-1046.70361	517.48474	34.06791	-1104.37671	555.24963	644.17487	-869.70251	597.76904	524.9574	-895.27887	580.32385	263.84537	-896.89093	586.94861	76.9647	-936.46228	550.87109	51.32776	-983.92114	739.71722	44.44375	-933.43488	467.07138	1702.5116	-1067.21533	NaN	NaN	NaN	NaN	NaN	NaN	NaN	NaN	NaN	NaN	NaN	NaN	NaN	NaN	NaN	NaN	NaN	NaN	NaN	NaN	NaN	NaN	NaN	NaN	NaN	NaN	NaN	NaN	NaN	NaN	NaN	NaN	NaN
255	2.54	579.90857	1664.26782	-1113.31213	563.73102	1650.6283	-983.01581	448.52277	1610.79285	-1132.45715	433.47318	1601.62708	-1004.29938	437.29089	1453.82434	-1074.4718	388.5022	1127.33411	-1061.28735	545.36395	1372.94739	-1064.46021	577.29211	1195.8208	-1067.57446	354.68738	1287.92896	-996.60962	504.18033	1405.64063	-1228.30933	542.21198	1207.9093	-1299.05664	568.88879	1097.57361	-1310.98828	656.18842	973.68481	-1319.09875	758.09424	903.97192	-1264.34802	710.26593	867.70966	-1301.18152	784.48425	817.43188	-1295.17712	493.00024	1407.55261	-907.08026	443.26651	1210.47656	-822.19049	446.44894	1088.79871	-808.84143	449.24905	968.80383	-788.77185	492.61044	822.43158	-812.74774	437.94247	831.13855	-775.57654	466.21902	751.23334	-770.33405	564.38409	957.18835	-1159.10168	558.85962	971.0567	-938.63281	406.04663	992.2597	-1134.69836	407.36893	995.73901	-966.29004	465.88403	646.00623	-1201.17029	441.59491	484.0079	-1174.40369	384.15952	233.07166	-1152.24158	373.11389	64.35735	-1095.06897	335.43246	52.99705	-1046.65112	517.65302	34.0299	-1104.33728	560.88007	643.21356	-869.72943	603.68182	524.14996	-895.98737	594.06793	263.04468	-897.3252	607.75348	76.33259	-936.64392	572.36615	50.33391	-984.1853	761.65253	46.32249	-934.13403	473.21494	1701.85828	-1067.06177	NaN	NaN	NaN	NaN	NaN	NaN	NaN	NaN	NaN	NaN	NaN	NaN	NaN	NaN	NaN	NaN	NaN	NaN	NaN	NaN	NaN	NaN	NaN	NaN	NaN	NaN	NaN	NaN	NaN	NaN	NaN	NaN	NaN
256	2.55	586.10425	1663.65833	-1113.10254	569.93622	1649.90991	-982.8385	454.72952	1610.15503	-1132.29651	439.66751	1600.90686	-1004.15759	443.42038	1453.18713	-1074.46167	394.87943	1126.58728	-1061.31128	551.56244	1372.27393	-1064.60962	583.38971	1195.12512	-1067.9906	361.04852	1287.06885	-996.60101	510.30527	1404.93127	-1228.37488	548.80145	1207.23694	-1298.78748	576.17511	1097.04651	-1310.3844	665.36694	974.367	-1317.40918	768.33167	907.02185	-1261.58582	721.21442	869.52856	-1298.53064	796.34534	820.73975	-1291.94653	499.38028	1406.73254	-907.06604	449.41583	1209.68311	-822.2923	452.28464	1087.94177	-809.10748	455.00717	967.9776	-789.11566	498.06949	821.49591	-813.20776	443.40085	830.26196	-776.00793	471.47385	750.35986	-770.88165	570.53778	956.77515	-1159.38452	565.4115	970.11096	-939.34991	411.99374	991.56793	-1134.8573	413.89215	994.99896	-966.42584	471.039	645.49817	-1201.5675	446.24356	483.55594	-1174.68079	386.61209	233.07259	-1152.36072	373.52274	64.54521	-1094.97375	335.66098	53.40699	-1046.56482	517.79718	33.95699	-1104.27539	566.50159	642.112	-869.69305	609.54297	523.38635	-896.64752	607.45984	262.37201	-897.7345	627.87671	76.17522	-936.85553	593.71375	49.66848	-984.34497	782.96002	48.50613	-934.76678	479.41748	1701.14722	-1066.82422	NaN	NaN	NaN	NaN	NaN	NaN	NaN	NaN	NaN	NaN	NaN	NaN	NaN	NaN	NaN	NaN	NaN	NaN	NaN	NaN	NaN	NaN	NaN	NaN	NaN	NaN	NaN	NaN	NaN	NaN	NaN	NaN	NaN
